<svg width="813" height="813" viewBox="0 0 813 813" fill="none" xmlns="http://www.w3.org/2000/svg">
<path fill-rule="evenodd" clip-rule="evenodd" d="M312.5 28.5C321.6 27.3 325.3 31.3 323.5 40.5C327.7 40.2 331.7 41 335.5 43C338.3 46.9 338 50.6 334.5 54C331 55.3 327.3 55.8 323.5 55.5C323.7 59.3 323.2 62.9 322 66.5C318 70.5 314.4 70.2 311 65.5C310 62.4 309.1 59.2 308.5 56C299.9 57.4 295.7 53.9 296 45.5C296.5 44.1 297.3 42.9 298.5 42C302.1 41.4 305.6 40.6 309 39.5C308.9 35.4 310.1 31.7 312.5 28.5Z" fill="#8FF2D6"/>
<path fill-rule="evenodd" clip-rule="evenodd" d="M527.5 82.5C530.3 82.2 532.8 82.9 535 84.5C535.8 88.5 537 92.3 538.5 96C542.7 96.2 546.5 97.3 550 99.5C550.7 102.2 550.7 104.8 550 107.5C549.1 108.7 547.9 109.5 546.5 110C543.5 110.3 540.5 110.7 537.5 111C536.9 114.5 536 118 535 121.5C530.9 125.7 527.3 125.4 524 120.5C523.5 117.2 523.3 113.8 523.5 110.5C516.3 112.3 511.3 110 508.5 103.5C508.9 100.8 510.3 98.6 512.5 97C515.8 96.5 519.2 96.3 522.5 96.5C521.4 90.7 523.1 86 527.5 82.5Z" fill="#8FF2D6"/>
<path fill-rule="evenodd" clip-rule="evenodd" d="M245.5 123.5C251.5 124.4 256.7 127.1 261 131.5C262.5 138.7 259.6 142.2 252.5 142C248.9 140 245.4 137.8 242 135.5C239.5 130.4 240.6 126.4 245.5 123.5Z" fill="#8FF2D6"/>
<path fill-rule="evenodd" clip-rule="evenodd" d="M271.5 141.5C273.9 141.3 276.2 141.5 278.5 142C288.3 147.7 298 153.7 307.5 160C310.7 165 309.7 169 304.5 172C303.2 172.7 301.8 172.7 300.5 172C289.7 165.5 279.2 158.7 269 151.5C267.9 147.6 268.7 144.2 271.5 141.5Z" fill="#8FF2D6"/>
<path fill-rule="evenodd" clip-rule="evenodd" d="M672.5 171.5C676 171.2 678.7 172.6 680.5 175.5C681.5 178.8 681.8 182.1 681.5 185.5C686.7 184.7 691.2 186 695 189.5C696.5 194.1 695 197.3 690.5 199C687.8 199.3 685.2 199.7 682.5 200C681.8 203.5 680.9 207 680 210.5C676.3 214.5 672.7 214.5 669 210.5C667.7 207 667.2 203.3 667.5 199.5C664.2 199.7 660.8 199.5 657.5 199C652.7 195.6 652.4 192 656.5 188C659.6 186.3 663 185.1 666.5 184.5C667.3 181.6 667.8 178.6 668 175.5C669.7 174.3 671.2 172.9 672.5 171.5Z" fill="#8FF2D6"/>
<path fill-rule="evenodd" clip-rule="evenodd" d="M162.5 178.5C165.3 178.2 167.8 178.9 170 180.5C171.4 184.4 171.9 188.4 171.5 192.5C175.6 192.3 179.6 192.8 183.5 194C186.1 197.9 186.1 201.9 183.5 206C179.8 206.5 176.2 206.7 172.5 206.5C173.1 211.6 171.7 216.1 168.5 220C164.2 221.5 161.1 220.3 159 216.5C158.7 213.8 158.2 211.1 157.5 208.5C154.3 207 151 205.9 147.5 205C142.7 202 142.4 198.6 146.5 195C150.6 193.5 154.4 191.7 158 189.5C157.9 185 159.4 181.3 162.5 178.5Z" fill="#8FF2D6"/>
<path fill-rule="evenodd" clip-rule="evenodd" d="M555.5 178.5C563.7 179.4 566 183.6 562.5 191C550.3 196.3 537.9 201.3 525.5 206C519.9 207.5 516.9 205.4 516.5 199.5C516.5 197.4 517.2 195.6 518.5 194C531.1 189.1 543.4 183.9 555.5 178.5Z" fill="#8FF2D6"/>
<path fill-rule="evenodd" clip-rule="evenodd" d="M231.5 233.5C245.3 238.2 259 243.3 272.5 249C276.6 253.3 276.3 257.3 271.5 261C268.8 261.7 266.2 261.7 263.5 261C252.6 256.1 241.6 251.5 230.5 247C226.3 242.2 226.7 237.7 231.5 233.5Z" fill="#8FF2D6"/>
<path fill-rule="evenodd" clip-rule="evenodd" d="M585.5 275.5C595.3 273.2 599.5 276.8 598 286.5C597.1 287.7 595.9 288.5 594.5 289C590.5 289.5 586.5 290 582.5 290.5C575.4 289.8 573.3 286.2 576 279.5C578.9 277.3 582.1 276 585.5 275.5Z" fill="#8FF2D6"/>
<path fill-rule="evenodd" clip-rule="evenodd" d="M549.5 281.5C554.4 280.8 558.6 282.1 562 285.5C562.3 292.2 559 295.9 552 296.5C545.6 296.1 542.9 292.8 544 286.5C545.7 284.6 547.6 282.9 549.5 281.5Z" fill="#8FF2D6"/>
<path fill-rule="evenodd" clip-rule="evenodd" d="M202.5 337.5C218.5 337.3 234.5 337.5 250.5 338C255.8 342.2 255.8 346.5 250.5 351C234.8 351.7 219.2 351.7 203.5 351C198.5 346.9 198.2 342.4 202.5 337.5Z" fill="#8FF2D6"/>
<path fill-rule="evenodd" clip-rule="evenodd" d="M553.5 358.5C562.8 358.3 572.2 358.5 581.5 359C585.5 363 585.5 367 581.5 371C572.2 371.7 562.8 371.7 553.5 371C549.5 366.8 549.5 362.6 553.5 358.5Z" fill="#8FF2D6"/>
<path fill-rule="evenodd" clip-rule="evenodd" d="M658.5 350.5C661.3 350.2 663.8 350.9 666 352.5C667 356.3 667.9 360.1 668.5 364C672.9 364 676.9 365.2 680.5 367.5C682 371.1 681.6 374.4 679.5 377.5C675.6 378.5 671.6 378.8 667.5 378.5C668 382.9 667.3 387.1 665.5 391C662 393.1 658.7 393 655.5 390.5C653.9 386.7 653.2 382.7 653.5 378.5C650.2 378.7 646.8 378.5 643.5 378C638.8 374.2 638.5 370.2 642.5 366C646.2 365.5 649.8 365.3 653.5 365.5C653.3 362.1 653.5 358.8 654 355.5C655 353.3 656.5 351.6 658.5 350.5Z" fill="#8FF2D6"/>
<path fill-rule="evenodd" clip-rule="evenodd" d="M401.5 68.5C404.6 68.2 407.6 68.7 410.5 70C412.7 72.9 414.5 76.1 416 79.5C457.3 190.4 499.2 301 541.5 411.5C547.8 412.3 554.1 412.8 560.5 413C561.6 414 562.7 414.8 564 415.5C564.7 450.5 564.7 485.5 564 520.5C563.1 521.7 561.9 522.5 560.5 523C554.8 523.5 549.2 523.7 543.5 523.5C543.7 547.5 543.5 571.5 543 595.5C539.2 624 523.4 641.8 495.5 649C468.3 655.4 440.9 661.2 413.5 666.5C413.7 677.2 413.5 687.8 413 698.5C411.4 701.1 409 702.5 406 702.5C374.1 690.3 342.6 677.2 311.5 663C289.1 652.3 275.3 634.8 270 610.5C268.6 581.5 268.1 552.5 268.5 523.5C262.8 523.7 257.2 523.5 251.5 523C249.7 522.5 248.5 521.3 248 519.5C247.3 485.2 247.3 450.8 248 416.5C249.2 415 250.7 413.8 252.5 413C259 413.1 265.1 412.3 271 410.5C314.2 296.4 357.7 182.4 401.5 68.5Z" fill="#303064"/>
<path fill-rule="evenodd" clip-rule="evenodd" d="M428.5 411.5C415.3 412.2 402 412.5 388.5 412.5C374.8 412.5 361.5 411.8 348.5 410.5C350.4 402.4 353.5 395.1 358 388.5C381.4 396.5 404.9 404.1 428.5 411.5Z" fill="#90F4D6"/>
<path fill-rule="evenodd" clip-rule="evenodd" d="M323.5 377.5C329.8 379 336 381 342 383.5C342.7 385.2 342.7 386.8 342 388.5C338.8 396.8 335.3 404.8 331.5 412.5C324.8 412.5 318.2 412.5 311.5 412.5C312.6 400.5 315.9 389.2 321.5 378.5C322 377.7 322.6 377.4 323.5 377.5Z" fill="#F7E660"/>
<path fill-rule="evenodd" clip-rule="evenodd" d="M323.5 377.5C322.6 377.4 322 377.7 321.5 378.5C315.9 389.2 312.6 400.5 311.5 412.5C318.2 412.5 324.8 412.5 331.5 412.5C316.7 413.7 301.7 413.8 286.5 413C286 412.6 285.7 412.1 285.5 411.5C290.7 397.9 296.1 384.4 301.5 371C309.2 372.1 316.5 374.2 323.5 377.5Z" fill="#F3ECC4"/>
<path fill-rule="evenodd" clip-rule="evenodd" d="M478.5 360.5C489.7 363.1 500.6 366.7 511 371.5C516.1 384.9 521.2 398.2 526.5 411.5C526.4 412.1 526 412.4 525.5 412.5C514.5 412.8 503.5 412.5 492.5 411.5C485.4 394.8 480.8 377.8 478.5 360.5Z" fill="#F8DC04"/>
<path fill-rule="evenodd" clip-rule="evenodd" d="M478.5 360.5C480.8 377.8 485.4 394.8 492.5 411.5C503.5 412.5 514.5 412.8 525.5 412.5C510.7 413.7 495.7 413.8 480.5 413C472.2 393.8 464.5 374.3 457.5 354.5C457.8 353.8 458.2 353.2 458.5 352.5C465.3 355 472 357.7 478.5 360.5Z" fill="#F2E05D"/>
<path fill-rule="evenodd" clip-rule="evenodd" d="M379.5 327.5C399.7 333.3 419.7 339.8 439.5 347C447.3 366.8 454.9 386.6 462.5 406.5C460.9 407.6 459.3 407.8 457.5 407C426.1 396.6 394.8 386.1 363.5 375.5C362.4 373.9 362.2 372.3 363 370.5C368.5 356.1 374 341.8 379.5 327.5Z" fill="#90F4D7"/>
<path fill-rule="evenodd" clip-rule="evenodd" d="M340.5 314.5C348.2 316.4 355.9 318.5 363.5 321C364.9 321.4 365.9 322.2 366.5 323.5C360.6 339.1 354.6 354.6 348.5 370C340.9 368.4 333.5 365.9 326.5 362.5C329.8 346.1 334.4 330.1 340.5 314.5Z" fill="#F7E55F"/>
<path fill-rule="evenodd" clip-rule="evenodd" d="M340.5 314.5C334.4 330.1 329.8 346.1 326.5 362.5C321 361.5 315.7 360 310.5 358C308.8 357.7 307.8 356.7 307.5 355C312.8 340.1 318.3 325.2 324 310.5C329.9 309.9 335.4 311.2 340.5 314.5Z" fill="#F7F0C7"/>
<path fill-rule="evenodd" clip-rule="evenodd" d="M460.5 285.5C467.6 287.1 474.4 289.5 481 292.5C488.6 312.3 496.1 332.1 503.5 352C503.2 352.5 502.8 353 502.5 353.5C492.7 350 483 346.3 473.5 342.5C466.9 324.3 461.9 305.6 458.5 286.5C459 285.7 459.6 285.4 460.5 285.5Z" fill="#F7DB05"/>
<path fill-rule="evenodd" clip-rule="evenodd" d="M460.5 285.5C459.6 285.4 459 285.7 458.5 286.5C461.9 305.6 466.9 324.3 473.5 342.5C466.8 341 460.1 339.1 453.5 337C452.1 336.5 450.9 335.7 450 334.5C442 314.7 434.5 294.7 427.5 274.5C438.8 277.6 449.8 281.3 460.5 285.5Z" fill="#F7E55F"/>
<path fill-rule="evenodd" clip-rule="evenodd" d="M402.5 265.5C406.2 265.7 409 267.4 411 270.5C418.7 290 425.8 309.7 432.5 329.5C416.9 324.3 401.2 319.3 385.5 314.5C391 298.1 396.6 281.8 402.5 265.5Z" fill="#8FF2D6"/>
<path fill-rule="evenodd" clip-rule="evenodd" d="M361.5 252.5C355.6 268.2 350.3 284.2 345.5 300.5C341.5 299.3 337.5 298.2 333.5 297C331.8 296.7 330.8 295.7 330.5 294C336.1 278.8 342 263.6 348 248.5C348.6 248 349.2 247.6 350 247.5C353.9 249.3 357.7 251 361.5 252.5Z" fill="#F7F0C7"/>
<path fill-rule="evenodd" clip-rule="evenodd" d="M361.5 252.5C369.8 254.9 378.2 257.4 386.5 260C387.9 260.4 388.9 261.2 389.5 262.5C384.2 278 378.2 293.2 371.5 308C362.6 306.4 354 303.9 345.5 300.5C350.3 284.2 355.6 268.2 361.5 252.5Z" fill="#F7E55F"/>
<path fill-rule="evenodd" clip-rule="evenodd" d="M439.5 209.5C444.1 209.5 447.9 211.2 451 214.5C459.4 234.2 466.9 254.2 473.5 274.5C465.9 272.4 458.6 269.7 451.5 266.5C447.3 248.1 442.6 229.7 437.5 211.5C437.7 210.3 438.4 209.6 439.5 209.5Z" fill="#F7DB06"/>
<path fill-rule="evenodd" clip-rule="evenodd" d="M380.5 189.5C373.3 205.2 368.3 221.5 365.5 238.5C362 237 358.3 235.9 354.5 235C354 234.4 353.6 233.8 353.5 233C359.1 218.1 364.7 203.3 370.5 188.5C371.5 188.2 372.5 187.8 373.5 187.5C375.9 187.9 378.3 188.6 380.5 189.5Z" fill="#F6EFC7"/>
<path fill-rule="evenodd" clip-rule="evenodd" d="M380.5 189.5C400.3 196.2 419.9 202.9 439.5 209.5C438.4 209.6 437.7 210.3 437.5 211.5C442.6 229.7 447.3 248.1 451.5 266.5C441.3 264 431.3 260.8 421.5 257C420.7 256.2 419.8 255.3 419 254.5C417.3 246.6 414.1 239.5 409.5 233C405.7 231 402.5 231.8 400 235.5C398.4 239.1 397 242.7 396 246.5C395.1 247.1 394.1 247.4 393 247.5C383.9 244.4 374.7 241.4 365.5 238.5C368.3 221.5 373.3 205.2 380.5 189.5Z" fill="#F8E65F"/>
<path fill-rule="evenodd" clip-rule="evenodd" d="M415.5 132.5C419.4 133.2 421.9 135.5 423 139.5C429.7 157.7 436.5 175.9 443.5 194C443.2 194.5 442.8 195 442.5 195.5C438.8 194.2 435.1 192.8 431.5 191.5C427 171.7 421 152.3 413.5 133.5C414 132.7 414.6 132.4 415.5 132.5Z" fill="#F5DA0D"/>
<path fill-rule="evenodd" clip-rule="evenodd" d="M399.5 127.5C405.1 128.8 410.4 130.5 415.5 132.5C414.6 132.4 414 132.7 413.5 133.5C421 152.3 427 171.7 431.5 191.5C415.4 186.4 399.4 181 383.5 175.5C388.3 159.2 393.6 143.2 399.5 127.5Z" fill="#F7E65F"/>
<path fill-rule="evenodd" clip-rule="evenodd" d="M399.5 127.5C393.6 143.2 388.3 159.2 383.5 175.5C381.5 175.2 379.5 174.8 377.5 174.5C377.3 172.5 377.5 170.5 378 168.5C383 155.5 388 142.5 393 129.5C394.3 125.2 396.4 124.5 399.5 127.5Z" fill="#F5EEC5"/>
<path fill-rule="evenodd" clip-rule="evenodd" d="M405.5 96.5C408.1 101.1 410.3 106.1 412 111.5C412.8 113.3 412.6 114.9 411.5 116.5C408.2 115.2 404.8 113.8 401.5 112.5C401.3 106.9 402.7 101.6 405.5 96.5Z" fill="#F1E060"/>
<path fill-rule="evenodd" clip-rule="evenodd" d="M348.5 410.5C361.5 411.8 374.8 412.5 388.5 412.5C402 412.5 415.3 412.2 428.5 411.5C429 411.6 429.4 411.9 429.5 412.5C402.2 413.5 374.8 413.8 347.5 413.5C347.3 412.2 347.6 411.2 348.5 410.5Z" fill="#6FAEB2"/>
<path fill-rule="evenodd" clip-rule="evenodd" d="M134.5 419.5C137.6 419.2 140.4 419.8 143 421.5C144.4 425.4 144.9 429.4 144.5 433.5C148.6 433.2 152.6 433.7 156.5 435C159.5 439.6 158.8 443.6 154.5 447C151.4 447.2 148.4 447.7 145.5 448.5C144.7 452.2 143.8 455.8 143 459.5C139 462.4 135.3 462.1 132 458.5C131 455 130.1 451.5 129.5 448C124.6 448.4 120.4 446.9 117 443.5C115.9 440 116.7 437.2 119.5 435C123 434 126.5 433.1 130 432.5C129.5 427.3 131 423 134.5 419.5Z" fill="#8FF2D6"/>
<path fill-rule="evenodd" clip-rule="evenodd" d="M261.5 427.5C336.3 426.5 411.3 426.2 486.5 426.5C486.8 454.1 486.5 481.6 485.5 509C464.8 510 444.2 510.5 423.5 510.5C378.2 509.8 332.8 509.4 287.5 509.5C290.3 508.5 293.3 508.2 296.5 508.5C295.5 482.8 295.3 457.2 296 431.5C296.5 430.5 297 429.5 297.5 428.5C285.5 427.5 273.5 427.2 261.5 427.5Z" fill="#37588B"/>
<path fill-rule="evenodd" clip-rule="evenodd" d="M497.5 426.5C501.8 426.5 506.2 426.5 510.5 426.5C510.7 453.8 510.5 481.2 510 508.5C508.3 509.1 506.4 509.5 504.5 509.5C502 509.7 499.8 509 498 507.5C497.5 480.5 497.3 453.5 497.5 426.5Z" fill="#37588B"/>
<path fill-rule="evenodd" clip-rule="evenodd" d="M261.5 427.5C273.5 427.2 285.5 427.5 297.5 428.5C297 429.5 296.5 430.5 296 431.5C295.3 457.2 295.5 482.8 296.5 508.5C293.3 508.2 290.3 508.5 287.5 509.5C278.8 509.5 270.2 509.5 261.5 509.5C261.5 482.2 261.5 454.8 261.5 427.5Z" fill="#4871B3"/>
<path fill-rule="evenodd" clip-rule="evenodd" d="M310.5 427.5C317.2 427.5 323.8 427.5 330.5 427.5C328.9 454.5 329.2 481.5 331.5 508.5C324.5 508.5 317.5 508.5 310.5 508.5C310.5 481.5 310.5 454.5 310.5 427.5Z" fill="#4871B3"/>
<path fill-rule="evenodd" clip-rule="evenodd" d="M342.5 427.5C351.5 427.5 360.5 427.5 369.5 427.5C368.2 454.2 368.2 480.9 369.5 507.5C360.5 508.5 351.5 508.8 342.5 508.5C345 481.5 345 454.5 342.5 427.5Z" fill="#4871B3"/>
<path fill-rule="evenodd" clip-rule="evenodd" d="M439.5 523.5C417.2 523.5 394.8 523.5 372.5 523.5C372.5 524.8 372.5 526.2 372.5 527.5C371.5 526.1 371.2 524.4 371.5 522.5C394.3 522.2 417 522.5 439.5 523.5Z" fill="#5A8A99"/>
<path fill-rule="evenodd" clip-rule="evenodd" d="M301.5 535.5C301.7 533.7 302.1 531.8 302.5 530C302 528.1 301.4 526.2 300.5 524.5C310.2 524.5 319.8 524.5 329.5 524.5C333.8 563 354.5 587.5 391.5 598C418.4 601.8 441.5 594.3 461 575.5C463.5 567.5 460.7 564.2 452.5 565.5C455.7 564.8 459 564.2 462.5 563.5C463.4 561.5 464 559.5 464.5 557.5C469.8 558.3 473.6 556.3 476 551.5C479.9 542.6 482.1 533.3 482.5 523.5C488.9 522.2 495.2 522.2 501.5 523.5C501.8 528.2 502.2 532.8 502.5 537.5C502.1 560.9 501 584.3 499 607.5C494.5 613.2 488.6 615.7 481.5 615C479.1 613.8 476.6 612.9 474 612.5C450.2 617.3 426.3 622.1 402.5 627C401.7 627.8 400.8 628.7 400 629.5C399.5 638.5 399.3 647.5 399.5 656.5C393.9 655.9 388.6 654.4 383.5 652C369 645.6 354.4 639.6 339.5 634C321.1 625.9 311.3 611.8 310 591.5C309.7 575.5 309.3 559.5 309 543.5C308.7 538.7 306.2 536.1 301.5 535.5Z" fill="#37588B"/>
<path fill-rule="evenodd" clip-rule="evenodd" d="M387.5 569.5C381.2 570 375.2 571.3 369.5 573.5C353.2 560.9 344.9 544.3 344.5 523.5C348.8 523.5 353.2 523.5 357.5 523.5C357.6 537 362.6 548.4 372.5 557.5C377 562.2 382 566.2 387.5 569.5Z" fill="#37588B"/>
<path fill-rule="evenodd" clip-rule="evenodd" d="M439.5 523.5C439.6 537 433.6 547.2 421.5 554C398.9 562.1 382.7 555.3 373 533.5C372.5 531.5 372.3 529.5 372.5 527.5C372.5 526.2 372.5 524.8 372.5 523.5C394.8 523.5 417.2 523.5 439.5 523.5Z" fill="#0D9CD8"/>
<path fill-rule="evenodd" clip-rule="evenodd" d="M464.5 557.5C464 559.5 463.4 561.5 462.5 563.5C459 564.2 455.7 564.8 452.5 565.5C426.8 588.8 399.2 591.5 369.5 573.5C375.2 571.3 381.2 570 387.5 569.5C425.1 576.7 447.9 561.7 456 524.5C459.7 523.5 463.6 523.2 467.5 523.5C466.7 529.5 465.5 535.5 464 541.5C463.3 546.9 463.4 552.2 464.5 557.5Z" fill="#4870B2"/>
<path fill-rule="evenodd" clip-rule="evenodd" d="M300.5 524.5C301.4 526.2 302 528.1 302.5 530C302.1 531.8 301.7 533.7 301.5 535.5C299.3 536.2 297.4 537.6 296 539.5C295.3 556.8 295.3 574.2 296 591.5C297.6 618.4 310.7 636.9 335.5 647C356.8 655.4 378 664.3 399 673.5C399.7 676.8 399.7 680.2 399 683.5C398.6 684 398.1 684.3 397.5 684.5C370.7 673.3 344 661.8 317.5 650C295.3 639.1 283.5 621.3 282 596.5C281.5 572.5 281.3 548.5 281.5 524.5C287.8 524.5 294.2 524.5 300.5 524.5Z" fill="#4870B2"/>
<path fill-rule="evenodd" clip-rule="evenodd" d="M367.5 729.5C412.9 728.6 458.3 730.1 503.5 734C516.9 735.3 530.3 737.3 543.5 740C550.9 741.8 557.9 744.3 564.5 747.5C565 750.7 564 753.2 561.5 755C550.6 759.4 539.2 762.4 527.5 764C445.8 774 364.2 774 282.5 764C234.7 754.8 234.7 745.8 282.5 737C310.9 733.2 339.2 730.7 367.5 729.5Z" fill="#376CB3"/>
</svg>
